<?xml version="1.0" encoding="UTF-8" standalone="no"?>
<!DOCTYPE score-partwise PUBLIC "-//Recordare//DTD MusicXML 0.6 Partwise//EN"  "http://www.musicxml.org/dtds/partwise.dtd">
<score-partwise>
	<movement-title>SILENT NIGHT</movement-title>
	<identification>
		<encoding>
			<software>Lime 9.05 for Windows</software>
			<encoding-date>2013-05-15</encoding-date>
		</encoding>
	</identification>
	<part-list>
		<score-part id="Part1">
			<part-name>Piano rh</part-name>
		</score-part>
		<score-part id="Part2">
			<part-name>piano lh</part-name>
		</score-part>
	</part-list>
	

<part id="Part1">
	<measure number="1">
		<attributes>
			<divisions>48</divisions>
			<key>
				<fifths>-2</fifths>
			</key>
			<time>
				<beats>3</beats>
				<beat-type>4</beat-type>
			</time>
			<clef>
				<sign>G</sign>
				<line>2</line>
			</clef>
		</attributes>
		<note>
			<pitch>
				<step>F</step>
				<octave>4</octave>
			</pitch>
			<duration>72</duration>
			<type>quarter</type>
			<dot/>
			<stem>up</stem>
			<notations>
				<slur number="1" type="start" orientation="under"/>
			</notations>
		</note>
		<note>
			<pitch>
				<step>G</step>
				<octave>4</octave>
			</pitch>
			<duration>24</duration>
			<type>eighth</type>
			<stem>up</stem>
			<notations>
				<slur number="1" type="stop" orientation="under"/>
			</notations>
		</note>
		<note>
			<pitch>
				<step>F</step>
				<octave>4</octave>
			</pitch>
			<duration>48</duration>
			<type>quarter</type>
			<stem>up</stem>
		</note>
	</measure>
	<measure number="2">
		<note>
			<pitch>
				<step>D</step>
				<octave>4</octave>
			</pitch>
			<duration>96</duration>
			<type>half</type>
			<stem>up</stem>
		</note>
		<note>
			<rest/>
			<duration>48</duration>
			<type>quarter</type>
		</note>
	</measure>
	<measure number="3">
		<note>
			<pitch>
				<step>F</step>
				<octave>4</octave>
			</pitch>
			<duration>72</duration>
			<type>quarter</type>
			<dot/>
			<stem>up</stem>
			<notations>
				<slur number="1" type="start" orientation="under"/>
			</notations>
		</note>
		<note>
			<pitch>
				<step>G</step>
				<octave>4</octave>
			</pitch>
			<duration>24</duration>
			<type>eighth</type>
			<stem>up</stem>
			<notations>
				<slur number="1" type="stop" orientation="under"/>
			</notations>
		</note>
		<note>
			<pitch>
				<step>F</step>
				<octave>4</octave>
			</pitch>
			<duration>48</duration>
			<type>quarter</type>
			<stem>up</stem>
		</note>
	</measure>
	<measure number="4">
		<print new-system="yes"/>
		<note>
			<pitch>
				<step>D</step>
				<octave>4</octave>
			</pitch>
			<duration>96</duration>
			<type>half</type>
			<stem>up</stem>
		</note>
		<note>
			<rest/>
			<duration>48</duration>
			<type>quarter</type>
		</note>
	</measure>
	<measure number="5">
		<note>
			<pitch>
				<step>C</step>
				<octave>5</octave>
			</pitch>
			<duration>96</duration>
			<type>half</type>
			<stem>down</stem>
		</note>
		<note>
			<pitch>
				<step>C</step>
				<octave>5</octave>
			</pitch>
			<duration>48</duration>
			<type>quarter</type>
			<stem>down</stem>
		</note>
	</measure>
	<measure number="6">
		<note>
			<pitch>
				<step>A</step>
				<octave>4</octave>
			</pitch>
			<duration>96</duration>
			<type>half</type>
			<stem>up</stem>
		</note>
		<note>
			<rest/>
			<duration>48</duration>
			<type>quarter</type>
		</note>
	</measure>
	<measure number="7">
		<note>
			<pitch>
				<step>B</step>
				<alter>-1</alter>
				<octave>4</octave>
			</pitch>
			<duration>96</duration>
			<type>half</type>
			<stem>down</stem>
		</note>
		<note>
			<pitch>
				<step>B</step>
				<alter>-1</alter>
				<octave>4</octave>
			</pitch>
			<duration>48</duration>
			<type>quarter</type>
			<stem>down</stem>
		</note>
	</measure>
	<measure number="8">
		<print new-system="yes"/>
		<note>
			<pitch>
				<step>F</step>
				<octave>4</octave>
			</pitch>
			<duration>96</duration>
			<type>half</type>
			<stem>up</stem>
		</note>
		<note>
			<rest/>
			<duration>48</duration>
			<type>quarter</type>
		</note>
	</measure>
	<measure number="9">
		<note>
			<pitch>
				<step>G</step>
				<octave>4</octave>
			</pitch>
			<duration>96</duration>
			<type>half</type>
			<stem>up</stem>
		</note>
		<note>
			<pitch>
				<step>G</step>
				<octave>4</octave>
			</pitch>
			<duration>48</duration>
			<type>quarter</type>
			<stem>up</stem>
		</note>
	</measure>
	<measure number="10">
		<note>
			<pitch>
				<step>B</step>
				<alter>-1</alter>
				<octave>4</octave>
			</pitch>
			<duration>72</duration>
			<type>quarter</type>
			<dot/>
			<stem>down</stem>
			<notations>
				<slur number="1" type="start" orientation="over"/>
			</notations>
		</note>
		<note>
			<pitch>
				<step>A</step>
				<octave>4</octave>
			</pitch>
			<duration>24</duration>
			<type>eighth</type>
			<stem>up</stem>
			<notations>
				<slur number="1" type="stop" orientation="over"/>
			</notations>
		</note>
		<note>
			<pitch>
				<step>G</step>
				<octave>4</octave>
			</pitch>
			<duration>48</duration>
			<type>quarter</type>
			<stem>up</stem>
		</note>
	</measure>
	<measure number="11">
		<note>
			<pitch>
				<step>F</step>
				<octave>4</octave>
			</pitch>
			<duration>72</duration>
			<type>quarter</type>
			<dot/>
			<stem>up</stem>
		</note>
		<note>
			<pitch>
				<step>G</step>
				<octave>4</octave>
			</pitch>
			<duration>24</duration>
			<type>eighth</type>
			<stem>up</stem>
		</note>
		<note>
			<pitch>
				<step>F</step>
				<octave>4</octave>
			</pitch>
			<duration>48</duration>
			<type>quarter</type>
			<stem>up</stem>
		</note>
	</measure>
	<measure number="12">
		<print new-system="yes"/>
		<note>
			<pitch>
				<step>D</step>
				<octave>4</octave>
			</pitch>
			<duration>96</duration>
			<type>half</type>
			<stem>up</stem>
		</note>
		<note>
			<rest/>
			<duration>48</duration>
			<type>quarter</type>
		</note>
	</measure>
	<measure number="13">
		<note>
			<pitch>
				<step>G</step>
				<octave>4</octave>
			</pitch>
			<duration>96</duration>
			<type>half</type>
			<stem>up</stem>
		</note>
		<note>
			<pitch>
				<step>G</step>
				<octave>4</octave>
			</pitch>
			<duration>48</duration>
			<type>quarter</type>
			<stem>up</stem>
		</note>
	</measure>
	<measure number="14">
		<note>
			<pitch>
				<step>B</step>
				<alter>-1</alter>
				<octave>4</octave>
			</pitch>
			<duration>72</duration>
			<type>quarter</type>
			<dot/>
			<stem>down</stem>
		</note>
		<note>
			<pitch>
				<step>A</step>
				<octave>4</octave>
			</pitch>
			<duration>24</duration>
			<type>eighth</type>
			<stem>up</stem>
		</note>
		<note>
			<pitch>
				<step>G</step>
				<octave>4</octave>
			</pitch>
			<duration>48</duration>
			<type>quarter</type>
			<stem>up</stem>
		</note>
	</measure>
	<measure number="15">
		<note>
			<pitch>
				<step>F</step>
				<octave>4</octave>
			</pitch>
			<duration>72</duration>
			<type>quarter</type>
			<dot/>
			<stem>up</stem>
		</note>
		<note>
			<pitch>
				<step>G</step>
				<octave>4</octave>
			</pitch>
			<duration>24</duration>
			<type>eighth</type>
			<stem>up</stem>
		</note>
		<note>
			<pitch>
				<step>F</step>
				<octave>4</octave>
			</pitch>
			<duration>48</duration>
			<type>quarter</type>
			<stem>up</stem>
		</note>
	</measure>
	<measure number="16">
		<print new-system="yes" new-page="yes"/>
		<note>
			<pitch>
				<step>D</step>
				<octave>4</octave>
			</pitch>
			<duration>96</duration>
			<type>half</type>
			<stem>up</stem>
		</note>
		<note>
			<rest/>
			<duration>48</duration>
			<type>quarter</type>
		</note>
	</measure>
	<measure number="17">
		<note>
			<pitch>
				<step>C</step>
				<octave>5</octave>
			</pitch>
			<duration>96</duration>
			<type>half</type>
			<stem>down</stem>
		</note>
		<note>
			<pitch>
				<step>C</step>
				<octave>5</octave>
			</pitch>
			<duration>48</duration>
			<type>quarter</type>
			<stem>down</stem>
		</note>
	</measure>
	<measure number="18">
		<note>
			<pitch>
				<step>E</step>
				<alter>-1</alter>
				<octave>5</octave>
			</pitch>
			<duration>72</duration>
			<type>quarter</type>
			<dot/>
			<stem>down</stem>
		</note>
		<note>
			<pitch>
				<step>C</step>
				<octave>5</octave>
			</pitch>
			<duration>24</duration>
			<type>eighth</type>
			<stem>down</stem>
		</note>
		<note>
			<pitch>
				<step>A</step>
				<octave>4</octave>
			</pitch>
			<duration>48</duration>
			<type>quarter</type>
			<stem>up</stem>
		</note>
	</measure>
	<measure number="19">
		<note>
			<pitch>
				<step>B</step>
				<alter>-1</alter>
				<octave>4</octave>
			</pitch>
			<duration>144</duration>
			<type>half</type>
			<dot/>
			<stem>down</stem>
			<notations>
				<slur number="1" type="start" orientation="over"/>
			</notations>
		</note>
	</measure>
	<measure number="20">
		<print new-system="yes"/>
		<note>
			<pitch>
				<step>D</step>
				<octave>5</octave>
			</pitch>
			<duration>96</duration>
			<type>half</type>
			<stem>down</stem>
			<notations>
				<slur number="1" type="stop" orientation="over"/>
			</notations>
		</note>
		<note>
			<rest/>
			<duration>48</duration>
			<type>quarter</type>
		</note>
	</measure>
	<measure number="21">
		<note>
			<pitch>
				<step>B</step>
				<alter>-1</alter>
				<octave>4</octave>
			</pitch>
			<duration>48</duration>
			<type>quarter</type>
			<stem>down</stem>
		</note>
		<note>
			<pitch>
				<step>F</step>
				<octave>4</octave>
			</pitch>
			<duration>48</duration>
			<type>quarter</type>
			<stem>up</stem>
		</note>
		<note>
			<pitch>
				<step>D</step>
				<octave>4</octave>
			</pitch>
			<duration>48</duration>
			<type>quarter</type>
			<stem>up</stem>
		</note>
	</measure>
	<measure number="22">
		<note>
			<pitch>
				<step>F</step>
				<octave>4</octave>
			</pitch>
			<duration>72</duration>
			<type>quarter</type>
			<dot/>
			<stem>up</stem>
		</note>
		<note>
			<pitch>
				<step>E</step>
				<alter>-1</alter>
				<octave>4</octave>
			</pitch>
			<duration>24</duration>
			<type>eighth</type>
			<stem>up</stem>
		</note>
		<note>
			<pitch>
				<step>C</step>
				<octave>4</octave>
			</pitch>
			<duration>48</duration>
			<type>quarter</type>
			<stem>up</stem>
		</note>
	</measure>
	<measure number="23">
		<note>
			<pitch>
				<step>B</step>
				<alter>-1</alter>
				<octave>3</octave>
			</pitch>
			<duration>144</duration>
			<tie type="start"/>
			<type>half</type>
			<dot/>
			<stem>up</stem>
			<notations>
				<tied type="start"/>
			</notations>
		</note>
	</measure>
	<measure number="24">
		<note>
			<pitch>
				<step>B</step>
				<alter>-1</alter>
				<octave>3</octave>
			</pitch>
			<duration>96</duration>
			<tie type="stop"/>
			<type>half</type>
			<stem>up</stem>
			<notations>
				<tied type="stop"/>
			</notations>
		</note>
		<note>
			<rest/>
			<duration>48</duration>
			<type>quarter</type>
		</note>
	</measure>
</part>
	

<part id="Part2">
	<measure number="1">
		<attributes>
			<divisions>48</divisions>
			<key>
				<fifths>-2</fifths>
			</key>
			<time>
				<beats>3</beats>
				<beat-type>4</beat-type>
			</time>
			<clef>
				<sign>F</sign>
				<line>4</line>
			</clef>
		</attributes>
		<note>
			<pitch>
				<step>B</step>
				<alter>-1</alter>
				<octave>3</octave>
			</pitch>
			<duration>72</duration>
			<type>quarter</type>
			<dot/>
			<stem>down</stem>
		</note>
		<note>
			<chord/>
			<pitch>
				<step>D</step>
				<octave>4</octave>
			</pitch>
			<duration>72</duration>
			<type>quarter</type>
			<dot/>
			<stem>down</stem>
		</note>
		<note>
			<chord/>
			<pitch>
				<step>F</step>
				<octave>4</octave>
			</pitch>
			<duration>72</duration>
			<type>quarter</type>
			<dot/>
			<stem>down</stem>
		</note>
		<note>
			<pitch>
				<step>E</step>
				<alter>-1</alter>
				<octave>4</octave>
			</pitch>
			<duration>24</duration>
			<type>eighth</type>
			<stem>down</stem>
		</note>
		<note>
			<chord/>
			<pitch>
				<step>G</step>
				<octave>4</octave>
			</pitch>
			<duration>24</duration>
			<type>eighth</type>
			<stem>down</stem>
		</note>
		<note>
			<pitch>
				<step>D</step>
				<octave>4</octave>
			</pitch>
			<duration>48</duration>
			<type>quarter</type>
			<stem>down</stem>
		</note>
		<note>
			<chord/>
			<pitch>
				<step>F</step>
				<octave>4</octave>
			</pitch>
			<duration>48</duration>
			<type>quarter</type>
			<stem>down</stem>
		</note>
	</measure>
	<measure number="2">
		<note>
			<pitch>
				<step>B</step>
				<alter>-1</alter>
				<octave>3</octave>
			</pitch>
			<duration>96</duration>
			<type>half</type>
			<stem>down</stem>
		</note>
		<note>
			<chord/>
			<pitch>
				<step>F</step>
				<octave>4</octave>
			</pitch>
			<duration>96</duration>
			<type>half</type>
			<stem>down</stem>
		</note>
		<note>
			<chord/>
			<pitch>
				<step>D</step>
				<octave>4</octave>
			</pitch>
			<duration>96</duration>
			<type>half</type>
			<stem>down</stem>
		</note>
		<note>
			<rest/>
			<duration>48</duration>
			<type>quarter</type>
		</note>
	</measure>
	<measure number="3">
		<note>
			<pitch>
				<step>B</step>
				<alter>-1</alter>
				<octave>3</octave>
			</pitch>
			<duration>72</duration>
			<type>quarter</type>
			<dot/>
			<stem>down</stem>
		</note>
		<note>
			<chord/>
			<pitch>
				<step>D</step>
				<octave>4</octave>
			</pitch>
			<duration>72</duration>
			<type>quarter</type>
			<dot/>
			<stem>down</stem>
		</note>
		<note>
			<chord/>
			<pitch>
				<step>F</step>
				<octave>4</octave>
			</pitch>
			<duration>72</duration>
			<type>quarter</type>
			<dot/>
			<stem>down</stem>
		</note>
		<note>
			<pitch>
				<step>G</step>
				<octave>4</octave>
			</pitch>
			<duration>24</duration>
			<type>eighth</type>
			<stem>down</stem>
		</note>
		<note>
			<chord/>
			<pitch>
				<step>E</step>
				<alter>-1</alter>
				<octave>4</octave>
			</pitch>
			<duration>24</duration>
			<type>eighth</type>
			<stem>down</stem>
		</note>
		<note>
			<pitch>
				<step>D</step>
				<octave>4</octave>
			</pitch>
			<duration>48</duration>
			<type>quarter</type>
			<stem>down</stem>
		</note>
		<note>
			<chord/>
			<pitch>
				<step>F</step>
				<octave>4</octave>
			</pitch>
			<duration>48</duration>
			<type>quarter</type>
			<stem>down</stem>
		</note>
	</measure>
	<measure number="4">
		<print new-system="yes"/>
		<note>
			<pitch>
				<step>F</step>
				<octave>4</octave>
			</pitch>
			<duration>96</duration>
			<type>half</type>
			<stem>down</stem>
		</note>
		<note>
			<chord/>
			<pitch>
				<step>B</step>
				<alter>-1</alter>
				<octave>3</octave>
			</pitch>
			<duration>96</duration>
			<type>half</type>
			<stem>down</stem>
		</note>
		<note>
			<chord/>
			<pitch>
				<step>D</step>
				<octave>4</octave>
			</pitch>
			<duration>96</duration>
			<type>half</type>
			<stem>down</stem>
		</note>
		<note>
			<rest/>
			<duration>48</duration>
			<type>quarter</type>
		</note>
	</measure>
	<measure number="5">
		<note>
			<pitch>
				<step>A</step>
				<octave>3</octave>
			</pitch>
			<duration>144</duration>
			<type>half</type>
			<dot/>
			<stem>down</stem>
		</note>
		<note>
			<chord/>
			<pitch>
				<step>F</step>
				<octave>4</octave>
			</pitch>
			<duration>144</duration>
			<type>half</type>
			<dot/>
			<stem>down</stem>
		</note>
		<note>
			<chord/>
			<pitch>
				<step>E</step>
				<alter>-1</alter>
				<octave>4</octave>
			</pitch>
			<duration>144</duration>
			<type>half</type>
			<dot/>
			<stem>down</stem>
		</note>
	</measure>
	<measure number="6">
		<note>
			<pitch>
				<step>A</step>
				<octave>3</octave>
			</pitch>
			<duration>96</duration>
			<type>half</type>
			<stem>down</stem>
		</note>
		<note>
			<chord/>
			<pitch>
				<step>F</step>
				<octave>4</octave>
			</pitch>
			<duration>96</duration>
			<type>half</type>
			<stem>down</stem>
		</note>
		<note>
			<chord/>
			<pitch>
				<step>E</step>
				<alter>-1</alter>
				<octave>4</octave>
			</pitch>
			<duration>96</duration>
			<type>half</type>
			<stem>down</stem>
		</note>
		<note>
			<rest/>
			<duration>48</duration>
			<type>quarter</type>
		</note>
	</measure>
	<measure number="7">
		<note>
			<pitch>
				<step>B</step>
				<alter>-1</alter>
				<octave>3</octave>
			</pitch>
			<duration>144</duration>
			<type>half</type>
			<dot/>
			<stem>down</stem>
		</note>
		<note>
			<chord/>
			<pitch>
				<step>D</step>
				<octave>4</octave>
			</pitch>
			<duration>144</duration>
			<type>half</type>
			<dot/>
			<stem>down</stem>
		</note>
		<note>
			<chord/>
			<pitch>
				<step>F</step>
				<octave>4</octave>
			</pitch>
			<duration>144</duration>
			<type>half</type>
			<dot/>
			<stem>down</stem>
		</note>
	</measure>
	<measure number="8">
		<print new-system="yes"/>
		<note>
			<pitch>
				<step>D</step>
				<octave>4</octave>
			</pitch>
			<duration>96</duration>
			<type>half</type>
			<stem>down</stem>
		</note>
		<note>
			<chord/>
			<pitch>
				<step>F</step>
				<octave>4</octave>
			</pitch>
			<duration>96</duration>
			<type>half</type>
			<stem>down</stem>
		</note>
		<note>
			<chord/>
			<pitch>
				<step>B</step>
				<alter>-1</alter>
				<octave>3</octave>
			</pitch>
			<duration>96</duration>
			<type>half</type>
			<stem>down</stem>
		</note>
		<note>
			<rest/>
			<duration>48</duration>
			<type>quarter</type>
		</note>
	</measure>
	<measure number="9">
		<note>
			<pitch>
				<step>E</step>
				<alter>-1</alter>
				<octave>4</octave>
			</pitch>
			<duration>144</duration>
			<type>half</type>
			<dot/>
			<stem>down</stem>
		</note>
		<note>
			<chord/>
			<pitch>
				<step>G</step>
				<octave>4</octave>
			</pitch>
			<duration>144</duration>
			<type>half</type>
			<dot/>
			<stem>down</stem>
		</note>
		<note>
			<chord/>
			<pitch>
				<step>B</step>
				<alter>-1</alter>
				<octave>3</octave>
			</pitch>
			<duration>144</duration>
			<type>half</type>
			<dot/>
			<stem>down</stem>
		</note>
	</measure>
	<measure number="10">
		<note>
			<pitch>
				<step>B</step>
				<alter>-1</alter>
				<octave>3</octave>
			</pitch>
			<duration>144</duration>
			<type>half</type>
			<dot/>
			<stem>down</stem>
		</note>
		<note>
			<chord/>
			<pitch>
				<step>E</step>
				<alter>-1</alter>
				<octave>4</octave>
			</pitch>
			<duration>144</duration>
			<type>half</type>
			<dot/>
			<stem>down</stem>
		</note>
		<note>
			<chord/>
			<pitch>
				<step>G</step>
				<octave>4</octave>
			</pitch>
			<duration>144</duration>
			<type>half</type>
			<dot/>
			<stem>down</stem>
		</note>
	</measure>
	<measure number="11">
		<note>
			<pitch>
				<step>F</step>
				<octave>4</octave>
			</pitch>
			<duration>144</duration>
			<type>half</type>
			<dot/>
			<stem>down</stem>
		</note>
		<note>
			<chord/>
			<pitch>
				<step>D</step>
				<octave>4</octave>
			</pitch>
			<duration>144</duration>
			<type>half</type>
			<dot/>
			<stem>down</stem>
		</note>
		<note>
			<chord/>
			<pitch>
				<step>B</step>
				<alter>-1</alter>
				<octave>3</octave>
			</pitch>
			<duration>144</duration>
			<type>half</type>
			<dot/>
			<stem>down</stem>
		</note>
	</measure>
	<measure number="12">
		<print new-system="yes"/>
		<note>
			<pitch>
				<step>B</step>
				<alter>-1</alter>
				<octave>3</octave>
			</pitch>
			<duration>96</duration>
			<type>half</type>
			<stem>down</stem>
		</note>
		<note>
			<chord/>
			<pitch>
				<step>F</step>
				<octave>4</octave>
			</pitch>
			<duration>96</duration>
			<type>half</type>
			<stem>down</stem>
		</note>
		<note>
			<chord/>
			<pitch>
				<step>D</step>
				<octave>4</octave>
			</pitch>
			<duration>96</duration>
			<type>half</type>
			<stem>down</stem>
		</note>
		<note>
			<rest/>
			<duration>48</duration>
			<type>quarter</type>
		</note>
	</measure>
	<measure number="13">
		<note>
			<pitch>
				<step>E</step>
				<alter>-1</alter>
				<octave>4</octave>
			</pitch>
			<duration>144</duration>
			<type>half</type>
			<dot/>
			<stem>down</stem>
		</note>
		<note>
			<chord/>
			<pitch>
				<step>G</step>
				<octave>4</octave>
			</pitch>
			<duration>144</duration>
			<type>half</type>
			<dot/>
			<stem>down</stem>
		</note>
		<note>
			<chord/>
			<pitch>
				<step>B</step>
				<alter>-1</alter>
				<octave>3</octave>
			</pitch>
			<duration>144</duration>
			<type>half</type>
			<dot/>
			<stem>down</stem>
		</note>
	</measure>
	<measure number="14">
		<note>
			<pitch>
				<step>B</step>
				<alter>-1</alter>
				<octave>3</octave>
			</pitch>
			<duration>144</duration>
			<type>half</type>
			<dot/>
			<stem>down</stem>
		</note>
		<note>
			<chord/>
			<pitch>
				<step>E</step>
				<alter>-1</alter>
				<octave>4</octave>
			</pitch>
			<duration>144</duration>
			<type>half</type>
			<dot/>
			<stem>down</stem>
		</note>
		<note>
			<chord/>
			<pitch>
				<step>G</step>
				<octave>4</octave>
			</pitch>
			<duration>144</duration>
			<type>half</type>
			<dot/>
			<stem>down</stem>
		</note>
	</measure>
	<measure number="15">
		<note>
			<pitch>
				<step>F</step>
				<octave>4</octave>
			</pitch>
			<duration>144</duration>
			<type>half</type>
			<dot/>
			<stem>down</stem>
		</note>
		<note>
			<chord/>
			<pitch>
				<step>D</step>
				<octave>4</octave>
			</pitch>
			<duration>144</duration>
			<type>half</type>
			<dot/>
			<stem>down</stem>
		</note>
		<note>
			<chord/>
			<pitch>
				<step>B</step>
				<alter>-1</alter>
				<octave>3</octave>
			</pitch>
			<duration>144</duration>
			<type>half</type>
			<dot/>
			<stem>down</stem>
		</note>
	</measure>
	<measure number="16">
		<print new-system="yes" new-page="yes"/>
		<note>
			<pitch>
				<step>B</step>
				<alter>-1</alter>
				<octave>3</octave>
			</pitch>
			<duration>96</duration>
			<type>half</type>
			<stem>down</stem>
		</note>
		<note>
			<chord/>
			<pitch>
				<step>F</step>
				<octave>4</octave>
			</pitch>
			<duration>96</duration>
			<type>half</type>
			<stem>down</stem>
		</note>
		<note>
			<chord/>
			<pitch>
				<step>D</step>
				<octave>4</octave>
			</pitch>
			<duration>96</duration>
			<type>half</type>
			<stem>down</stem>
		</note>
		<note>
			<rest/>
			<duration>48</duration>
			<type>quarter</type>
		</note>
	</measure>
	<measure number="17">
		<note>
			<pitch>
				<step>A</step>
				<octave>3</octave>
			</pitch>
			<duration>144</duration>
			<type>half</type>
			<dot/>
			<stem>down</stem>
		</note>
		<note>
			<chord/>
			<pitch>
				<step>F</step>
				<octave>4</octave>
			</pitch>
			<duration>144</duration>
			<type>half</type>
			<dot/>
			<stem>down</stem>
		</note>
		<note>
			<chord/>
			<pitch>
				<step>E</step>
				<alter>-1</alter>
				<octave>4</octave>
			</pitch>
			<duration>144</duration>
			<type>half</type>
			<dot/>
			<stem>down</stem>
		</note>
	</measure>
	<measure number="18">
		<note>
			<pitch>
				<step>A</step>
				<octave>3</octave>
			</pitch>
			<duration>144</duration>
			<type>half</type>
			<dot/>
			<stem>down</stem>
		</note>
		<note>
			<chord/>
			<pitch>
				<step>E</step>
				<alter>-1</alter>
				<octave>4</octave>
			</pitch>
			<duration>144</duration>
			<type>half</type>
			<dot/>
			<stem>down</stem>
		</note>
		<note>
			<chord/>
			<pitch>
				<step>F</step>
				<octave>4</octave>
			</pitch>
			<duration>144</duration>
			<type>half</type>
			<dot/>
			<stem>down</stem>
		</note>
	</measure>
	<measure number="19">
		<note>
			<pitch>
				<step>F</step>
				<octave>4</octave>
			</pitch>
			<duration>144</duration>
			<type>half</type>
			<dot/>
			<stem>down</stem>
		</note>
		<note>
			<chord/>
			<pitch>
				<step>D</step>
				<octave>4</octave>
			</pitch>
			<duration>144</duration>
			<type>half</type>
			<dot/>
			<stem>down</stem>
		</note>
		<note>
			<chord/>
			<pitch>
				<step>B</step>
				<alter>-1</alter>
				<octave>3</octave>
			</pitch>
			<duration>144</duration>
			<type>half</type>
			<dot/>
			<stem>down</stem>
		</note>
	</measure>
	<measure number="20">
		<print new-system="yes"/>
		<note>
			<pitch>
				<step>B</step>
				<alter>-1</alter>
				<octave>3</octave>
			</pitch>
			<duration>96</duration>
			<type>half</type>
			<stem>down</stem>
		</note>
		<note>
			<chord/>
			<pitch>
				<step>F</step>
				<octave>4</octave>
			</pitch>
			<duration>96</duration>
			<type>half</type>
			<stem>down</stem>
		</note>
		<note>
			<chord/>
			<pitch>
				<step>D</step>
				<octave>4</octave>
			</pitch>
			<duration>96</duration>
			<type>half</type>
			<stem>down</stem>
		</note>
		<note>
			<rest/>
			<duration>48</duration>
			<type>quarter</type>
		</note>
	</measure>
	<measure number="21">
		<note>
			<pitch>
				<step>F</step>
				<octave>3</octave>
			</pitch>
			<duration>96</duration>
			<type>half</type>
			<stem>down</stem>
		</note>
		<note>
			<chord/>
			<pitch>
				<step>B</step>
				<alter>-1</alter>
				<octave>3</octave>
			</pitch>
			<duration>96</duration>
			<type>half</type>
			<stem>down</stem>
		</note>
		<note>
			<chord/>
			<pitch>
				<step>D</step>
				<octave>4</octave>
			</pitch>
			<duration>96</duration>
			<type>half</type>
			<stem>down</stem>
		</note>
		<note>
			<rest/>
			<duration>48</duration>
			<type>quarter</type>
		</note>
	</measure>
	<measure number="22">
		<note>
			<pitch>
				<step>F</step>
				<octave>2</octave>
			</pitch>
			<duration>96</duration>
			<type>half</type>
			<stem>up</stem>
		</note>
		<note>
			<chord/>
			<pitch>
				<step>E</step>
				<alter>-1</alter>
				<octave>3</octave>
			</pitch>
			<duration>96</duration>
			<type>half</type>
			<stem>up</stem>
		</note>
		<note>
			<pitch>
				<step>F</step>
				<octave>2</octave>
			</pitch>
			<duration>48</duration>
			<type>quarter</type>
			<stem>up</stem>
		</note>
		<note>
			<chord/>
			<pitch>
				<step>E</step>
				<alter>-1</alter>
				<octave>3</octave>
			</pitch>
			<duration>48</duration>
			<type>quarter</type>
			<stem>up</stem>
		</note>
	</measure>
	<measure number="23">
		<note>
			<pitch>
				<step>B</step>
				<alter>-1</alter>
				<octave>2</octave>
			</pitch>
			<duration>144</duration>
			<tie type="start"/>
			<type>half</type>
			<dot/>
			<stem>up</stem>
			<notations>
				<tied type="start"/>
			</notations>
		</note>
		<note>
			<chord/>
			<pitch>
				<step>D</step>
				<octave>3</octave>
			</pitch>
			<duration>144</duration>
			<tie type="start"/>
			<type>half</type>
			<dot/>
			<stem>up</stem>
			<notations>
				<tied type="start"/>
			</notations>
		</note>
	</measure>
	<measure number="24">
		<note>
			<pitch>
				<step>B</step>
				<alter>-1</alter>
				<octave>2</octave>
			</pitch>
			<duration>96</duration>
			<tie type="stop"/>
			<type>half</type>
			<stem>up</stem>
			<notations>
				<tied type="stop"/>
			</notations>
		</note>
		<note>
			<chord/>
			<pitch>
				<step>D</step>
				<octave>3</octave>
			</pitch>
			<duration>96</duration>
			<tie type="stop"/>
			<type>half</type>
			<stem>up</stem>
			<notations>
				<tied type="stop"/>
			</notations>
		</note>
		<note>
			<rest/>
			<duration>48</duration>
			<type>quarter</type>
		</note>
	</measure>
</part>


</score-partwise>
